<?xml version="1.0" encoding="UTF-8"?>
<svg width="689px" height="114px" viewBox="0 0 689 114" version="1.1" xmlns="http://www.w3.org/2000/svg" xmlns:xlink="http://www.w3.org/1999/xlink">
    <g id="v6" stroke="none" stroke-width="1" fill="none" fill-rule="evenodd">
        <g id="Code-logo" transform="translate(-24.000000, -24.000000)">
            <rect id="Rectangle" x="0" y="0" width="732" height="151"></rect>
            <path d="M71.3696,117.4 L90.5504,117.4 L57.5456,65.2144 L86.2304,26.3344 L66.3584,26.3344 L51.3248,48.28 L40.6112,65.0416 L40.6112,26.3344 L24.0224,26.3344 L24.0224,117.4 L40.6112,117.4 L40.6112,84.9136 L46.6592,78.3472 L71.3696,117.4 Z M130.1216,119.4736 C149.9936,119.4736 162.2624,107.2048 162.2624,84.9136 L162.2624,58.648 C162.2624,36.3568 149.9936,24.088 130.1216,24.088 C110.4224,24.088 98.1536,36.3568 98.1536,58.648 L98.1536,84.9136 C98.1536,107.2048 110.4224,119.4736 130.1216,119.4736 Z M130.1216,103.2304 C120.7904,103.2304 115.088,97.7008 115.088,84.9136 L115.088,58.648 C115.088,45.8608 120.7904,40.3312 130.1216,40.3312 C139.6256,40.3312 145.328,45.8608 145.328,58.648 L145.328,84.9136 C145.328,97.7008 139.6256,103.2304 130.1216,103.2304 Z M170.2112,137.6176 L186.2816,137.6176 L186.2816,117.4 L234.32,117.4 L234.32,137.6176 L250.3904,137.6176 L250.3904,102.0208 L240.0224,102.0208 L240.0224,26.3344 L187.1456,26.3344 C186.8,40.8496 186.1088,55.5376 185.2448,70.0528 C184.3808,82.84 182.1344,94.7632 177.1232,102.0208 L170.2112,102.0208 L170.2112,137.6176 Z M196.1312,102.0208 C198.896,94.7632 200.624,85.432 201.488,73.8544 C202.352,63.1408 202.6976,52.4272 202.8704,41.7136 L223.4336,41.7136 L223.4336,102.0208 L196.1312,102.0208 Z" id="код" fill="#000000" fill-rule="nonzero"></path>
            <rect id="Rectangle-Copy-44" fill="#000000" transform="translate(296.800000, 71.600000) scale(-1, 1) translate(-296.800000, -71.600000) " x="292" y="26" width="9.6" height="91.2"></rect>
            <path d="M340.418,57 L345.168,57 L351.248,47.994 L353.642,47.994 L353.642,57 L357.594,57 L357.594,47.994 L360.064,47.994 L366.144,57 L370.818,57 L363.332,46.208 L370.21,36.556 L365.65,36.556 L360.064,44.84 L357.594,44.84 L357.594,36.556 L353.642,36.556 L353.642,44.84 L351.134,44.84 L345.586,36.556 L341.064,36.556 L347.942,46.284 L340.418,57 Z M372.87,63.65 L374.77,63.65 C379.368,63.65 380.584,62.282 382.256,57.456 L389.476,36.556 L385.372,36.556 L380.546,51.794 L375.606,36.556 L371.236,36.556 L378.608,56.962 L378.456,57.418 L378.282173,57.9060908 C377.356498,60.3613564 376.430824,60.496 374.428,60.496 L372.87,60.496 L372.87,63.65 Z M396.088,36.556 L392.136,36.556 L392.136,63.65 L396.088,63.65 L396.088,54.112 C397.342,56.202 399.47,57.494 402.472,57.494 C407.222,57.494 411.288,53.504 411.288,46.816 C411.288,40.166 407.222,36.176 402.472,36.176 C399.47,36.176 397.342,37.468 396.088,39.558 L396.088,36.556 Z M401.56,54.188 C398.52,54.188 395.936,51.87 395.936,46.816 C395.936,41.762 398.52,39.482 401.56,39.482 C404.828,39.482 407.07,42.218 407.07,46.816 C407.07,51.414 404.828,54.188 401.56,54.188 Z M429.3,57 L433.252,57 L433.252,36.556 L429.3,36.556 L429.3,44.954 L419.344,44.954 L419.344,36.556 L415.392,36.556 L415.392,57 L419.344,57 L419.344,48.108 L429.3,48.108 L429.3,57 Z M437.546,51.49 C437.546,55.214 440.7,57.494 444.842,57.494 C448.148,57.494 450.466,56.354 451.682,54.302 L451.719775,54.8529222 C451.793976,55.785574 451.895385,56.3247692 452.024,57 L455.824,57 C455.466353,55.2832941 455.27701,52.960692 455.255972,50.1589172 L455.255381,49.3700864 C455.265674,48.208016 455.33,45.18048 455.33,44.726 C455.406,38.608 452.366,36.062 447.084,36.062 C442.41,36.062 438.838,38.684 438.496,43.016 L442.486,43.016 C442.638,40.508 444.196,39.102 446.932,39.102 C449.44,39.102 451.34,40.318 451.34,43.928 L451.34,44.346 L450.601675,44.4259185 C443.037965,45.2686875 437.546,46.6675625 437.546,51.49 Z M451.53,47.272 L451.53,48.754 C451.53,52.82 448.984,54.454 445.716,54.454 C443.322,54.454 441.84,53.276 441.84,51.414 C441.84,48.754 445.184,47.88 451.53,47.272 Z M477.028,57 L477.028,36.556 L463.044,36.556 L462.74,42.94 L462.696896,43.7465284 C462.27317,50.9802105 461.058667,53.846 458.712,53.846 L458.294,53.846 L458.294,57 L459.016,57 C464.336,57 466.122,52.136 466.54,43.548 L466.73,39.71 L473.076,39.71 L473.076,57 L477.028,57 Z M341.596,109 L346.688,109 L353.3,98.778 C353.756,98.816 354.706,98.816 355.2,98.816 L358.772,98.816 L358.772,109 L363.104,109 L363.104,81.45 L355.276,81.45 C348.398,81.45 343.382,83.502 343.382,90 C343.382,94.028 345.586,96.346 349.006,97.676 L341.596,109 Z M354.972,95.168 C350.868,95.168 347.79,94.028 347.79,90.114 C347.79,86.048 350.716,85.136 354.972,85.136 L358.772,85.136 L358.772,95.168 L354.972,95.168 Z M383.092,109 L387.044,109 L387.044,88.556 L383.092,88.556 L383.092,96.954 L373.136,96.954 L373.136,88.556 L369.184,88.556 L369.184,109 L373.136,109 L373.136,100.108 L383.092,100.108 L383.092,109 Z M412.656,113.864 L412.656,105.846 L409.73,105.846 L409.73,88.556 L395.29,88.556 L395.024,95.092 C394.72,102.806 393.732,105.846 391.642,105.846 L390.654,105.846 L390.654,113.864 L394.378,113.864 L394.378,109 L408.932,109 L408.932,113.864 L412.656,113.864 Z M405.778,91.71 L405.778,105.846 L396.202,105.846 C397.746516,104.227935 398.401334,101.186354 398.683053,96.7212549 L398.976,91.71 L405.778,91.71 Z M430.44,102.996 C429.604,104.934 427.932,106.112 425.082,106.112 C421.89,106.112 419.496,103.756 419.116,99.994 L434.696,99.994 C435.114,93.344 431.428,88.176 425.12,88.176 C419.306,88.176 415.05,92.394 415.05,98.74 C415.05,104.668 418.622,109.494 425.234,109.494 C430.44,109.494 433.48,106.378 434.43,102.996 L430.44,102.996 Z M419.192,96.878 C419.724,93.002 422.004,91.406 425.082,91.406 C428.35,91.406 430.478,93.838 430.592,96.878 L419.192,96.878 Z M445.146,99.994 L452.024,109 L456.774,109 L448.376,98.322 L456.09,88.556 L451.492,88.556 L445.26,96.84 L442.752,96.84 L442.752,88.556 L438.8,88.556 L438.8,109 L442.752,109 L442.752,99.994 L445.146,99.994 Z M477.142,95.472 C476.534,91.482 472.962,88.176 468.288,88.176 C462.246,88.176 458.408,92.736 458.408,98.816 C458.408,104.972 462.132,109.494 468.022,109.494 C472.544,109.494 476.534,106.492 477.332,102.198 L473.342,102.198 C472.81,104.63 470.606,106.112 468.098,106.112 C465.286,106.112 462.626,103.832 462.626,98.778 C462.626,93.8 465.248,91.558 468.098,91.558 C470.682,91.558 472.772,93.154 473.19,95.472 L477.142,95.472 Z M507.998,109 L512.33,109 L512.33,81.45 L490.518,81.45 L490.518,109 L494.85,109 L494.85,85.136 L507.998,85.136 L507.998,109 Z M522.172,88.556 L518.22,88.556 L518.22,115.65 L522.172,115.65 L522.172,106.112 C523.426,108.202 525.554,109.494 528.556,109.494 C533.306,109.494 537.372,105.504 537.372,98.816 C537.372,92.166 533.306,88.176 528.556,88.176 C525.554,88.176 523.426,89.468 522.172,91.558 L522.172,88.556 Z M527.644,106.188 C524.604,106.188 522.02,103.87 522.02,98.816 C522.02,93.762 524.604,91.482 527.644,91.482 C530.912,91.482 533.154,94.218 533.154,98.816 C533.154,103.414 530.912,106.188 527.644,106.188 Z M540.07,103.49 C540.07,107.214 543.224,109.494 547.366,109.494 C550.672,109.494 552.99,108.354 554.206,106.302 L554.243775,106.852922 C554.317976,107.785574 554.419385,108.324769 554.548,109 L558.348,109 C557.990353,107.283294 557.80101,104.960692 557.779972,102.158917 L557.779381,101.370086 C557.789674,100.208016 557.854,97.18048 557.854,96.726 C557.93,90.608 554.89,88.062 549.608,88.062 C544.934,88.062 541.362,90.684 541.02,95.016 L545.01,95.016 C545.162,92.508 546.72,91.102 549.456,91.102 C551.964,91.102 553.864,92.318 553.864,95.928 L553.864,96.346 L553.125675,96.4259185 C545.561965,97.2686875 540.07,98.6675625 540.07,103.49 Z M554.054,99.272 L554.054,100.754 C554.054,104.82 551.508,106.454 548.24,106.454 C545.846,106.454 544.364,105.276 544.364,103.414 C544.364,100.754 547.708,99.88 554.054,99.272 Z M569.254,99.994 L576.132,109 L580.882,109 L572.484,98.322 L580.198,88.556 L575.6,88.556 L569.368,96.84 L566.86,96.84 L566.86,88.556 L562.908,88.556 L562.908,109 L566.86,109 L566.86,99.994 L569.254,99.994 Z M593.004,91.71 L600.186,91.71 L600.186,88.556 L581.832,88.556 L581.832,91.71 L589.052,91.71 L589.052,109 L593.004,109 L593.004,91.71 Z M603.606,109 L607.482,109 L617.476,94.256 L617.476,109 L621.352,109 L621.352,88.556 L617.476,88.556 L607.482,103.338 L607.482,88.556 L603.606,88.556 L603.606,109 Z M633.436,99.994 L640.314,109 L645.064,109 L636.666,98.322 L644.38,88.556 L639.782,88.556 L633.55,96.84 L631.042,96.84 L631.042,88.556 L627.09,88.556 L627.09,109 L631.042,109 L631.042,99.994 L633.436,99.994 Z M647.078,112.496 L647.078,115.65 L648.978,115.65 C653.576,115.65 654.792,114.282 656.464,109.456 L663.684,88.556 L659.58,88.556 L654.754,103.794 L649.814,88.556 L645.444,88.556 L652.816,108.962 L652.664,109.418 C651.676,112.344 650.764,112.496 648.636,112.496 L647.078,112.496 Z M689.866,109 L689.866,88.556 L683.976,88.556 L678.314,103.756 L672.424,88.556 L666.534,88.556 L666.534,109 L670.334,109 L670.334,92.85 L676.718,109 L679.682,109 L686.066,92.698 L686.066,109 L689.866,109 Z M694.16,103.49 C694.16,107.214 697.314,109.494 701.456,109.494 C704.762,109.494 707.08,108.354 708.296,106.302 L708.333775,106.852922 C708.407976,107.785574 708.509385,108.324769 708.638,109 L712.438,109 C712.080353,107.283294 711.89101,104.960692 711.869972,102.158917 L711.869381,101.370086 C711.879674,100.208016 711.944,97.18048 711.944,96.726 C712.02,90.608 708.98,88.062 703.698,88.062 C699.024,88.062 695.452,90.684 695.11,95.016 L699.1,95.016 C699.252,92.508 700.81,91.102 703.546,91.102 C706.054,91.102 707.954,92.318 707.954,95.928 L707.954,96.346 L707.215675,96.4259185 C699.651965,97.2686875 694.16,98.6675625 694.16,103.49 Z M708.144,99.272 L708.144,100.754 C708.144,104.82 705.598,106.454 702.33,106.454 C699.936,106.454 698.454,105.276 698.454,103.414 C698.454,100.754 701.798,99.88 708.144,99.272 Z" id="журналЯндексПрактикума" fill="#000000" fill-rule="nonzero" transform="translate(526.428000, 75.856000) rotate(-360.000000) translate(-526.428000, -75.856000) "></path>
        </g>
    </g>
</svg>